<svg width="35" height="34" viewBox="0 0 35 34" fill="none" xmlns="http://www.w3.org/2000/svg">
<path d="M14.7941 13.894C14.7941 14.5473 14.5795 15.0653 14.1501 15.448C13.7208 15.8213 13.0908 16.008 12.2601 16.008C11.6721 16.008 11.1215 15.896 10.6081 15.672C10.1041 15.4387 9.61879 15.0327 9.15212 14.454C8.69479 13.866 8.45733 13.412 8 12.348L9.39012 11.36C9.77279 12.3587 10.1835 13.1193 10.6221 13.642C11.0608 14.1647 11.5601 14.426 12.1201 14.426C12.6615 14.426 12.9321 14.16 12.9321 13.628C12.9321 13.1893 12.7828 12.802 12.4841 12.466C12.1668 12.5407 11.8168 12.5827 11.4341 12.592L11.3501 11.108C11.9008 11.08 12.2741 10.9913 12.4701 10.842C12.6661 10.6927 12.7641 10.4827 12.7641 10.212C12.7641 9.94133 12.6708 9.764 12.4841 9.68C12.2975 9.58667 12.0875 9.54 11.8541 9.54C11.5648 9.54 11.2848 9.582 11.0141 9.666C10.7528 9.75 10.7521 9.71736 10.5001 9.84802L9.72612 8.588C9.99679 8.448 10.3421 8.31733 10.7621 8.196C11.1915 8.06533 11.6581 8 12.1621 8C12.9648 8 13.5761 8.20533 13.9961 8.616C14.4161 9.02667 14.6261 9.54467 14.6261 10.17C14.6261 10.8513 14.3741 11.402 13.8701 11.822C13.9075 11.8687 13.9448 11.9107 13.9821 11.948C14.1035 11.9667 14.2341 11.9807 14.3741 11.99C14.5141 11.9993 14.6728 12.004 14.8501 12.004C15.1301 12.004 15.3915 11.99 15.6341 11.962C15.8768 11.9247 16.1101 11.864 16.3341 11.78V9.68H15.4381L14.8501 8L19.5261 8.14L20.0001 9.68H18.2101V17.5111L16.3341 16.848V13.334C16.1381 13.4087 15.9328 13.46 15.7181 13.488C15.5128 13.5067 15.3028 13.516 15.0881 13.516C14.9855 13.516 14.8781 13.5113 14.7661 13.502C14.7848 13.6327 14.7941 13.7633 14.7941 13.894Z" fill="#B12525"/>
<path d="M24.026 25.848C23.938 25.848 23.8604 25.7906 23.8347 25.7065L23.1933 23.6095C23.1676 23.5254 23.09 23.468 23.002 23.468H19.658C19.57 23.468 19.4924 23.5254 19.4667 23.6095L18.8253 25.7065C18.7996 25.7906 18.722 25.848 18.634 25.848H16.7823C16.6444 25.848 16.5479 25.7118 16.5936 25.5817L19.981 15.9437C20.0092 15.8636 20.0848 15.81 20.1697 15.81H22.4765C22.5613 15.81 22.6369 15.8635 22.6651 15.9434L26.0659 25.5814C26.1119 25.7116 26.0153 25.848 25.8773 25.848H24.026ZM21.918 19.366C21.8713 19.2073 21.8107 19.0067 21.736 18.764C21.6613 18.5213 21.5867 18.274 21.512 18.022C21.4615 17.8516 21.1975 17.8513 21.1467 18.0216C21.1425 18.0356 21.1383 18.0497 21.134 18.064C21.0593 18.3347 20.9847 18.596 20.91 18.848C20.8447 19.0907 20.7933 19.2633 20.756 19.366L20.1215 21.4313C20.082 21.5599 20.1781 21.69 20.3127 21.69H22.3738C22.5088 21.69 22.605 21.559 22.5646 21.4302L21.918 19.366Z" fill="#B12525"/>
<rect x="0.5" y="0.5" width="33.16" height="32.848" rx="16.424" stroke="#B12525"/>
</svg>
